<svg xmlns="http://www.w3.org/2000/svg" width="1024" height="1024" viewBox="0 0 1024 1024">
  <defs>
    <linearGradient id="bg" x1="0" y1="0" x2="1" y2="1">
      <stop offset="0" stop-color="#0b1020"/>
      <stop offset="1" stop-color="#0e2a3b"/>
    </linearGradient>
    <radialGradient id="glow" cx="50%" cy="40%" r="55%">
      <stop offset="0" stop-color="#1b5b7a" stop-opacity="0.85"/>
      <stop offset="1" stop-color="#0b1020" stop-opacity="0"/>
    </radialGradient>
    <linearGradient id="block" x1="0" y1="0" x2="1" y2="1">
      <stop offset="0" stop-color="#5ff5ff"/>
      <stop offset="1" stop-color="#1aa9ff"/>
    </linearGradient>
    <linearGradient id="block-edge" x1="0" y1="0" x2="0" y2="1">
      <stop offset="0" stop-color="#d8ffff" stop-opacity="0.9"/>
      <stop offset="1" stop-color="#0b7ecb" stop-opacity="0.8"/>
    </linearGradient>
    <filter id="softShadow" x="-20%" y="-20%" width="140%" height="140%">
      <feDropShadow dx="0" dy="18" stdDeviation="24" flood-color="#061018" flood-opacity="0.7"/>
    </filter>
  </defs>

  <rect x="64" y="64" width="896" height="896" rx="180" fill="url(#bg)"/>
  <rect x="64" y="64" width="896" height="896" rx="180" fill="url(#glow)"/>
  <rect x="96" y="96" width="832" height="832" rx="164" fill="none" stroke="#153447" stroke-width="8"/>

  <g filter="url(#softShadow)">
    <g>
      <rect x="188" y="260" width="200" height="200" rx="38" fill="url(#block)"/>
      <rect x="212" y="284" width="152" height="152" rx="30" fill="none" stroke="url(#block-edge)" stroke-width="10"/>
    </g>
    <g>
      <rect x="412" y="260" width="200" height="200" rx="38" fill="url(#block)"/>
      <rect x="436" y="284" width="152" height="152" rx="30" fill="none" stroke="url(#block-edge)" stroke-width="10"/>
    </g>
    <g>
      <rect x="636" y="260" width="200" height="200" rx="38" fill="url(#block)"/>
      <rect x="660" y="284" width="152" height="152" rx="30" fill="none" stroke="url(#block-edge)" stroke-width="10"/>
    </g>
    <g>
      <rect x="412" y="484" width="200" height="200" rx="38" fill="url(#block)"/>
      <rect x="436" y="508" width="152" height="152" rx="30" fill="none" stroke="url(#block-edge)" stroke-width="10"/>
    </g>
  </g>

  <path d="M 244 770 L 780 770" stroke="#0e3d52" stroke-width="10" stroke-linecap="round"/>
  <path d="M 294 812 L 730 812" stroke="#0c2e3f" stroke-width="8" stroke-linecap="round"/>
</svg>
